# xmcd CD database file
# Copyright (C) 1993-1998 Ti Kan
# 
# Track frame offsets:
#     182
#     12845
#     28352
#     41942
#     53902
#     69610
#     79960
#     93915
#     106577
#     119712
# 
# Disc length: 1817 seconds
# 
# Revision: 1
# Processed by: cddbd v1.4b41PL1 Copyright (c) Steve Scherf et al.
# Submitted via: DiscPlay 4.0.4
# 
DISCID=8707170a
DTITLE=Barry White - Come On In Love
DYEAR=1900
DGENRE=
TTITLE0=Out Of The Shadows Of Love
TTITLE1=Come On In Love
TTITLE2=I've Got The World To Hold Me Up
TTITLE3=Where Can I Turn To
TTITLE4=Your Heart And Soul
TTITLE5=I Owe It All To You
TTITLE6=Under The Influence of Love
TTITLE7=All in The Run of a Day
TTITLE8=Fragile, Handle With Care
TTITLE9=Long Black Veil
EXTD=
EXTT0=
EXTT1=
EXTT2=
EXTT3=
EXTT4=
EXTT5=
EXTT6=
EXTT7=
EXTT8=
EXTT9=
PLAYORDER=
